<?xml version="1.0" standalone="no"?>
<!DOCTYPE svg PUBLIC "-//W3C//DTD SVG 20010904//EN"
 "http://www.w3.org/TR/2001/REC-SVG-20010904/DTD/svg10.dtd">
<svg version="1.0" xmlns="http://www.w3.org/2000/svg"
 width="700.000000pt" height="700.000000pt" viewBox="0 0 700.000000 700.000000"
 preserveAspectRatio="xMidYMid meet">
<metadata>
Created by potrace 1.11, written by Peter Selinger 2001-2013
</metadata>
<g transform="translate(0.000000,700.000000) scale(0.100000,-0.100000)"
fill="#000000" stroke="none">
<path d="M3405 6600 c-122 -27 -217 -139 -230 -268 -8 -91 21 -160 101 -239
l63 -63 0 -1921 0 -1922 -34 -61 c-26 -47 -33 -71 -31 -106 2 -61 34 -119 85
-155 38 -27 51 -30 115 -30 64 0 77 3 109 28 93 71 105 211 26 293 l-30 31 0
1278 c1 703 2 1280 4 1282 5 4 67 -55 67 -65 0 -4 60 -68 133 -142 272 -278
370 -408 398 -526 34 -145 -8 -287 -156 -534 -36 -60 -65 -112 -65 -115 0 -14
171 125 230 186 135 141 201 283 202 442 1 120 -36 232 -119 362 -67 103 -125
170 -316 365 -178 181 -250 261 -330 367 l-47 61 0 440 0 440 43 22 c56 29
112 91 131 146 24 70 16 187 -16 249 -38 72 -106 132 -173 150 -39 11 -122 14
-160 5z m108 -137 c46 -6 92 -43 116 -92 41 -83 -11 -197 -100 -221 -110 -30
-209 46 -209 160 0 64 30 111 92 143 31 16 49 18 101 10z m17 -4350 c14 -9 30
-24 37 -33 28 -34 6 -128 -34 -145 -86 -38 -167 13 -161 100 5 74 98 120 158
78z"/>
<path d="M3885 6425 c-53 -10 -57 -12 -35 -20 14 -5 30 -10 35 -11 21 -4 170
-68 224 -97 187 -98 365 -257 508 -450 29 -40 56 -77 61 -83 5 -6 36 -55 69
-110 264 -441 330 -798 173 -938 -33 -29 -121 -73 -162 -81 -13 -3 -38 -8 -55
-11 -45 -9 -33 -20 35 -35 248 -51 437 81 488 341 12 61 11 253 -3 316 -6 34
-14 72 -16 85 -10 54 -68 212 -113 305 -146 309 -388 562 -664 698 -162 80
-398 119 -545 91z"/>
<path d="M2780 6350 c-75 -14 -130 -56 -161 -123 -26 -59 -24 -84 16 -162 l35
-69 0 -711 0 -710 -25 -18 c-47 -34 -58 -28 -142 78 l-80 100 0 485 0 485 33
61 c39 71 43 117 14 173 -71 141 -269 149 -336 14 -14 -28 -19 -60 -19 -116 0
-76 1 -80 33 -108 18 -16 39 -29 47 -29 14 0 15 -65 13 -545 l-2 -544 54 -73
c30 -40 85 -112 122 -160 50 -64 68 -97 72 -126 10 -82 67 -164 164 -236 l48
-34 -1 -154 -1 -153 -33 -60 c-38 -71 -38 -123 0 -180 26 -39 83 -81 123 -91
19 -4 46 -41 117 -161 l93 -156 1 -156 c0 -151 0 -157 -23 -176 -89 -76 -114
-116 -117 -184 -6 -135 90 -241 218 -241 106 1 187 64 211 167 25 111 2 197
-64 236 l-38 21 1 206 0 206 -82 165 c-81 160 -83 165 -70 199 26 70 15 154
-25 200 -10 11 -14 55 -14 175 l0 159 54 61 c145 162 138 292 -26 455 l-25 25
-2 706 c0 389 -3 717 -4 730 -2 14 6 39 19 56 28 39 42 112 32 159 -23 101
-129 172 -230 154z m74 -100 c49 -18 76 -92 51 -141 -45 -86 -169 -75 -194 17
-24 87 57 157 143 124z m-504 -307 c44 -26 58 -94 29 -142 -35 -57 -108 -66
-159 -19 -17 15 -31 36 -31 47 -1 12 -2 27 -3 34 -3 20 22 65 46 81 29 21 83
20 118 -1z m527 -1538 c43 -29 65 -74 60 -131 -14 -195 -297 -189 -297 6 0
123 132 193 237 125z m-11 -787 c69 -33 61 -153 -12 -184 -107 -45 -199 88
-118 170 37 36 77 40 130 14z m198 -1049 c35 -16 50 -63 31 -99 -36 -69 -135
-44 -135 35 0 24 7 39 26 54 31 24 43 26 78 10z"/>
<path d="M3875 5966 c-22 -7 -67 -28 -100 -47 l-60 -34 80 -8 c143 -13 269
-98 367 -244 143 -214 161 -353 93 -691 -21 -101 -35 -185 -32 -189 10 -9 132
83 176 133 187 212 230 457 122 697 -76 169 -213 301 -378 363 -79 31 -205 40
-268 20z"/>
<path d="M1807 5361 c-110 -57 -142 -164 -85 -281 l27 -55 0 -290 -1 -290 -47
-50 c-101 -107 -130 -203 -97 -316 29 -102 95 -167 192 -192 l46 -12 112 -220
c62 -121 175 -344 253 -495 77 -151 158 -309 178 -350 l38 -75 0 -281 c-1
-262 -2 -286 -22 -338 -27 -73 -27 -121 2 -176 50 -100 168 -137 269 -86 63
32 93 67 110 129 16 61 0 113 -52 163 l-39 38 1 332 c1 216 -2 337 -9 346 -5
7 -47 85 -93 173 -45 88 -87 166 -92 173 -6 6 -7 12 -4 12 4 0 -1 12 -12 28
-10 15 -38 65 -62 112 -23 47 -59 117 -80 155 -20 39 -63 120 -95 180 -32 61
-78 147 -102 193 l-44 83 32 36 c45 52 72 119 72 176 -1 64 -48 158 -109 220
l-48 47 0 287 c-1 281 -1 288 21 309 12 12 26 39 32 60 40 145 -46 270 -192
279 -38 2 -61 -3 -100 -24z m128 -75 c81 -34 83 -150 4 -189 -58 -27 -125 2
-145 64 -22 65 22 126 99 138 4 0 23 -5 42 -13z m16 -1013 c75 -44 71 -161 -7
-198 -33 -16 -79 -14 -115 6 -29 15 -51 67 -46 109 5 47 12 57 51 81 38 23 79
24 117 2z m729 -2172 c27 -22 32 -33 32 -68 -1 -76 -55 -121 -129 -107 -70 13
-103 116 -53 169 25 27 73 45 101 37 9 -2 31 -16 49 -31z"/>
<path d="M5301 4928 c-1 -4 -21 -81 -45 -171 -81 -298 -167 -499 -289 -679
-96 -142 -128 -179 -334 -388 -166 -169 -219 -233 -265 -324 -43 -85 -55 -134
-53 -207 2 -61 31 -179 44 -179 3 0 12 -14 20 -31 7 -16 14 -29 16 -27 1 2 5
38 8 81 10 157 76 241 335 429 260 188 410 353 520 573 26 53 89 239 97 290
36 217 22 437 -39 600 -8 22 -15 37 -15 33z"/>
<path d="M4154 3373 c-242 -207 -414 -446 -471 -655 -26 -94 -23 -263 6 -347
42 -121 122 -223 230 -295 64 -42 141 -81 141 -70 0 3 -18 36 -40 74 -45 77
-72 136 -103 225 -16 47 -21 84 -21 170 1 146 11 176 174 520 113 238 192 445
171 445 -4 0 -44 -30 -87 -67z"/>
<path d="M4622 3182 c-4 -172 -29 -239 -137 -373 -30 -36 -60 -72 -67 -80 -8
-8 -27 -32 -43 -54 -16 -22 -34 -44 -40 -50 -35 -33 -128 -198 -150 -266 -33
-104 -30 -211 7 -284 30 -59 68 -99 68 -72 0 46 30 129 66 182 18 28 86 103
150 169 130 134 238 273 278 360 29 61 32 71 45 150 23 136 -34 286 -145 379
l-30 26 -2 -87z"/>
<path d="M2630 1690 c-19 -4 -49 -14 -65 -22 -125 -66 -112 -251 22 -310 l44
-19 -48 -24 c-150 -75 -133 -292 27 -339 l42 -12 -39 -12 c-134 -40 -178 -225
-77 -325 58 -58 71 -60 300 -61 l211 -1 55 -50 c143 -131 320 -172 481 -111
74 28 116 54 189 118 l49 42 207 1 c178 1 212 4 245 19 71 35 117 110 113 186
-5 82 -59 160 -122 176 -33 8 -30 16 19 40 53 26 95 85 103 146 6 39 2 57 -20
102 -22 45 -35 59 -77 80 l-51 25 39 19 c83 43 122 127 98 210 -16 52 -28 67
-80 101 l-40 25 -795 1 c-437 0 -811 -2 -830 -5z"/>
</g>
</svg>
