<?xml version="1.0" standalone="no"?>
<!DOCTYPE svg PUBLIC "-//W3C//DTD SVG 20010904//EN"
 "http://www.w3.org/TR/2001/REC-SVG-20010904/DTD/svg10.dtd">
<svg version="1.0" xmlns="http://www.w3.org/2000/svg"
 width="1026.000000pt" height="1026.000000pt" viewBox="0 0 1026.000000 1026.000000"
 preserveAspectRatio="xMidYMid meet">
<metadata>
Created by potrace 1.11, written by Peter Selinger 2001-2013
</metadata>
<g transform="translate(0.000000,1026.000000) scale(0.100000,-0.100000)"
fill="#000000" stroke="none">
<path d="M4929 8827 c-2 -3 -42 -7 -89 -10 -47 -4 -121 -13 -165 -21 -44 -9
-96 -18 -115 -21 -19 -3 -42 -8 -50 -10 -16 -4 -74 -13 -130 -21 -19 -2 -51
-6 -70 -9 -19 -3 -91 -12 -160 -20 -234 -29 -353 -60 -436 -116 -59 -40 -95
-128 -79 -197 17 -77 170 -78 475 -2 41 11 86 21 100 24 14 3 84 18 155 35 72
16 148 32 170 36 22 3 64 9 93 14 58 9 309 7 357 -3 17 -3 66 -13 110 -22 192
-38 310 -126 374 -279 99 -237 51 -444 -137 -588 -113 -87 -199 -118 -309
-111 -96 6 -213 81 -213 137 0 82 40 114 207 166 233 72 233 72 238 124 3 25
-67 91 -124 118 -83 39 -259 55 -382 34 -50 -9 -168 -46 -232 -74 -182 -79
-312 -257 -330 -449 -17 -184 111 -324 343 -376 77 -18 280 -21 365 -5 22 4
60 9 85 12 207 25 604 161 786 269 108 64 193 157 248 271 68 140 85 205 87
334 2 164 -32 278 -121 398 -116 156 -300 264 -543 320 -38 9 -86 18 -108 20
-21 3 -58 7 -81 10 -57 7 -313 16 -319 12z"/>
<path d="M9710 8634 c-30 -7 -68 -15 -85 -17 -137 -20 -363 -96 -525 -176
-372 -184 -713 -488 -972 -866 -165 -240 -342 -602 -438 -895 -44 -133 -104
-394 -115 -495 -16 -154 -19 -218 -19 -355 0 -135 7 -280 19 -392 2 -18 7 -69
10 -113 4 -44 8 -91 10 -105 1 -14 6 -61 10 -105 4 -44 9 -87 10 -96 2 -8 6
-55 10 -105 3 -49 8 -96 10 -104 2 -8 7 -51 10 -95 4 -44 9 -96 11 -115 23
-232 23 -914 0 -1046 -46 -265 -192 -521 -446 -783 -119 -122 -366 -301 -575
-416 -263 -144 -499 -236 -835 -324 -63 -17 -126 -32 -140 -35 -14 -2 -68 -14
-120 -25 -52 -10 -115 -22 -140 -25 -25 -3 -56 -8 -70 -11 -44 -9 -300 -39
-420 -50 -300 -25 -1021 -26 -1160 -1 -14 2 -52 7 -85 11 -89 10 -262 49 -415
94 -435 129 -643 221 -870 384 -108 78 -134 100 -250 218 -200 201 -332 441
-409 742 -25 97 -33 138 -46 242 -24 188 -27 607 -6 745 14 97 32 194 45 250
3 14 8 36 11 50 18 94 81 308 195 670 106 335 129 433 169 725 45 324 45 464
-4 805 -2 14 -6 52 -10 85 -4 32 -9 68 -11 80 -2 11 -6 38 -9 60 -3 22 -9 65
-15 95 -5 30 -12 75 -15 100 -49 372 -326 663 -779 819 -262 90 -452 125 -691
126 -198 0 -264 -16 -336 -85 -60 -56 -69 -87 -37 -123 20 -21 124 -70 177
-82 20 -5 222 -64 361 -105 58 -17 137 -40 175 -51 39 -11 112 -41 164 -66 75
-37 110 -62 170 -122 45 -45 89 -101 108 -137 60 -113 162 -425 178 -541 3
-21 9 -65 14 -98 10 -62 7 -600 -2 -645 -3 -14 -8 -52 -12 -85 -6 -71 -13
-121 -21 -155 -3 -14 -8 -36 -10 -50 -12 -71 -43 -204 -101 -435 -24 -99 -46
-187 -48 -195 -2 -8 -31 -116 -65 -240 -33 -124 -63 -234 -65 -244 -3 -10 -15
-58 -29 -105 -30 -107 -62 -241 -71 -301 -4 -25 -9 -54 -11 -65 -25 -126 -24
-501 1 -648 20 -114 29 -160 55 -262 29 -111 90 -307 110 -350 5 -11 18 -43
28 -71 44 -120 133 -305 193 -401 43 -68 141 -203 169 -233 8 -9 36 -38 61
-66 74 -79 217 -196 309 -251 251 -150 517 -235 935 -298 61 -10 119 -19 130
-21 11 -2 61 -9 110 -14 50 -6 108 -13 130 -15 180 -21 1015 -28 1405 -12 386
16 492 22 750 42 112 8 195 25 562 116 301 74 438 122 643 226 186 93 444 268
560 378 12 11 37 33 56 49 89 74 287 278 399 412 140 167 180 222 257 349 149
248 255 520 281 720 15 107 6 486 -13 606 -20 130 -28 177 -31 194 -10 49 -50
292 -59 360 -3 22 -8 51 -10 65 -3 14 -7 45 -10 70 -3 25 -7 61 -10 80 -9 70
-20 175 -30 292 -4 43 -8 90 -11 105 -6 46 -6 324 0 383 3 30 8 80 11 111 3
31 12 96 20 145 9 49 18 101 20 116 23 132 94 353 167 518 102 231 347 595
533 790 218 230 585 456 1039 639 82 33 159 70 172 82 59 55 27 155 -57 180
-45 13 -190 9 -259 -7z"/>
<path d="M7640 7968 c-121 -14 -190 -46 -475 -222 -85 -53 -337 -220 -420
-279 -44 -32 -91 -65 -104 -75 -60 -42 -264 -202 -346 -271 -229 -191 -538
-496 -890 -876 -235 -254 -397 -526 -480 -807 -14 -48 -30 -90 -35 -93 -5 -3
-16 9 -23 27 -45 105 -211 431 -274 536 -105 175 -333 521 -416 631 -263 348
-639 685 -1024 919 -121 73 -378 199 -483 237 -157 56 -293 73 -360 45 -39
-16 -75 -90 -74 -151 2 -78 35 -111 192 -195 177 -95 225 -122 332 -182 282
-158 499 -332 716 -572 140 -155 387 -473 440 -565 6 -11 46 -81 89 -155 96
-166 230 -433 296 -588 55 -128 199 -507 199 -524 0 -5 6 -24 14 -41 20 -45
72 -210 90 -287 28 -121 84 -375 90 -410 3 -19 17 -91 31 -160 14 -69 28 -137
30 -152 3 -15 14 -74 26 -130 11 -57 22 -119 25 -138 3 -19 7 -46 9 -60 3 -14
7 -43 10 -65 58 -423 90 -491 239 -500 123 -8 238 27 297 89 69 73 111 199
112 331 1 139 -18 225 -103 486 -103 314 -119 426 -115 789 2 140 6 275 9 299
22 168 52 267 144 471 208 463 404 776 652 1043 126 136 303 302 454 428 16
13 61 51 100 85 102 86 315 250 431 330 103 71 185 124 490 315 296 185 314
198 335 240 24 47 25 78 4 123 -31 65 -107 89 -234 74z"/>
</g>
</svg>
